<svg xmlns="http://www.w3.org/2000/svg" xmlns:xlink="http://www.w3.org/1999/xlink" width="2000" zoomAndPan="magnify" viewBox="0 0 1500 1499.999933" height="2000" preserveAspectRatio="xMidYMid meet" version="1.0"><defs><g/><clipPath id="64d38a889c"><rect x="0" width="667" y="0" height="667"/></clipPath><clipPath id="d2b7b805b5"><rect x="0" width="1121" y="0" height="611"/></clipPath></defs><g transform="matrix(1, 0, 0, 1, 63, 136)"><g clip-path="url(#64d38a889c)"><g fill="#000000" fill-opacity="1"><g transform="translate(0.874107, 479.635937)"><g><path d="M 395.1875 0 L 374.40625 -260.4375 L 371.75 -260.4375 L 281.734375 -2.65625 L 222.09375 -2.65625 L 132.078125 -260.4375 L 129.421875 -260.4375 L 108.65625 0 L 8.515625 0 L 47.9375 -439.390625 L 154.453125 -439.390625 L 251.921875 -185.875 L 349.375 -439.390625 L 455.90625 -439.390625 L 495.3125 0 Z M 395.1875 0 "/></g></g></g><g fill="#000000" fill-opacity="1"><g transform="translate(504.71013, 479.635937)"><g><path d="M 41 -425.53125 C 52.007812 -436.539062 65.148438 -442.046875 80.421875 -442.046875 C 95.691406 -442.046875 108.828125 -436.539062 119.828125 -425.53125 C 130.835938 -414.53125 136.34375 -401.394531 136.34375 -386.125 C 136.34375 -370.863281 130.835938 -357.726562 119.828125 -346.71875 C 108.828125 -335.707031 95.691406 -330.203125 80.421875 -330.203125 C 65.148438 -330.203125 52.007812 -335.707031 41 -346.71875 C 30 -357.726562 24.5 -370.863281 24.5 -386.125 C 24.5 -401.394531 30 -414.53125 41 -425.53125 Z M 31.953125 -273.21875 L 31.953125 0 L 126.21875 0 L 126.21875 -273.21875 Z M 31.953125 -273.21875 "/></g></g></g></g></g><g transform="matrix(1, 0, 0, 1, 379, 723)"><g clip-path="url(#d2b7b805b5)"><g fill="#000000" fill-opacity="1"><g transform="translate(0.613321, 439.089842)"><g><path d="M 29.265625 0 L 29.265625 -419.484375 L 115.59375 -419.484375 L 115.59375 0 Z M 29.265625 0 "/></g></g></g><g fill="#000000" fill-opacity="1"><g transform="translate(145.480637, 439.089842)"><g><path d="M 52.921875 -29.75 C 25.117188 -54.46875 11.21875 -86.171875 11.21875 -124.859375 C 11.21875 -163.554688 25.6875 -195.34375 54.625 -220.21875 C 83.570312 -245.101562 119.34375 -257.546875 161.9375 -257.546875 C 203.882812 -257.546875 239.242188 -245.023438 268.015625 -219.984375 C 296.796875 -194.941406 311.1875 -163.234375 311.1875 -124.859375 C 311.1875 -86.492188 297.125 -54.875 269 -30 C 240.875 -5.125 205.1875 7.3125 161.9375 7.3125 C 117.0625 7.3125 80.722656 -5.039062 52.921875 -29.75 Z M 119.75 -167.296875 C 108.53125 -156.242188 102.921875 -142.097656 102.921875 -124.859375 C 102.921875 -107.628906 108.285156 -93.566406 119.015625 -82.671875 C 129.742188 -71.785156 143.890625 -66.34375 161.453125 -66.34375 C 178.359375 -66.34375 192.257812 -71.867188 203.15625 -82.921875 C 214.050781 -93.972656 219.5 -107.957031 219.5 -124.875 C 219.5 -142.101562 213.890625 -156.242188 202.671875 -167.296875 C 191.453125 -178.359375 177.710938 -183.890625 161.453125 -183.890625 C 144.867188 -183.890625 130.96875 -178.359375 119.75 -167.296875 Z M 119.75 -167.296875 "/></g></g></g><g fill="#000000" fill-opacity="1"><g transform="translate(467.895762, 439.089842)"><g><path d="M 18.046875 61.453125 L 88.765625 26.828125 C 101.773438 48.285156 124.378906 59.015625 156.578125 59.015625 C 171.535156 59.015625 185.4375 54.21875 198.28125 44.625 C 211.125 35.03125 217.546875 20.316406 217.546875 0.484375 L 217.546875 -18.046875 C 202.265625 -1.140625 174.945312 7.3125 135.59375 7.3125 C 99.5 7.3125 69.742188 -5.445312 46.328125 -30.96875 C 22.921875 -56.5 11.21875 -87.796875 11.21875 -124.859375 C 11.21875 -161.929688 22.921875 -193.3125 46.328125 -219 C 69.742188 -244.695312 99.5 -257.546875 135.59375 -257.546875 C 167.789062 -257.546875 194.617188 -247.625 216.078125 -227.78125 L 217.546875 -227.78125 L 217.546875 -250.21875 L 303.875 -250.21875 L 303.875 6.828125 C 303.875 47.472656 290.378906 78.851562 263.390625 100.96875 C 236.398438 123.082031 200.796875 134.140625 156.578125 134.140625 C 85.035156 134.140625 38.859375 109.910156 18.046875 61.453125 Z M 119.75 -167.296875 C 108.53125 -156.242188 102.921875 -142.097656 102.921875 -124.859375 C 102.921875 -107.628906 108.285156 -93.566406 119.015625 -82.671875 C 129.742188 -71.785156 143.890625 -66.34375 161.453125 -66.34375 C 178.359375 -66.34375 192.257812 -71.867188 203.15625 -82.921875 C 214.050781 -93.972656 219.5 -107.957031 219.5 -124.875 C 219.5 -142.101562 213.890625 -156.242188 202.671875 -167.296875 C 191.453125 -178.359375 177.710938 -183.890625 161.453125 -183.890625 C 144.867188 -183.890625 130.96875 -178.359375 119.75 -167.296875 Z M 119.75 -167.296875 "/></g></g></g><g fill="#000000" fill-opacity="1"><g transform="translate(798.60306, 439.089842)"><g><path d="M 52.921875 -29.75 C 25.117188 -54.46875 11.21875 -86.171875 11.21875 -124.859375 C 11.21875 -163.554688 25.6875 -195.34375 54.625 -220.21875 C 83.570312 -245.101562 119.34375 -257.546875 161.9375 -257.546875 C 203.882812 -257.546875 239.242188 -245.023438 268.015625 -219.984375 C 296.796875 -194.941406 311.1875 -163.234375 311.1875 -124.859375 C 311.1875 -86.492188 297.125 -54.875 269 -30 C 240.875 -5.125 205.1875 7.3125 161.9375 7.3125 C 117.0625 7.3125 80.722656 -5.039062 52.921875 -29.75 Z M 119.75 -167.296875 C 108.53125 -156.242188 102.921875 -142.097656 102.921875 -124.859375 C 102.921875 -107.628906 108.285156 -93.566406 119.015625 -82.671875 C 129.742188 -71.785156 143.890625 -66.34375 161.453125 -66.34375 C 178.359375 -66.34375 192.257812 -71.867188 203.15625 -82.921875 C 214.050781 -93.972656 219.5 -107.957031 219.5 -124.875 C 219.5 -142.101562 213.890625 -156.242188 202.671875 -167.296875 C 191.453125 -178.359375 177.710938 -183.890625 161.453125 -183.890625 C 144.867188 -183.890625 130.96875 -178.359375 119.75 -167.296875 Z M 119.75 -167.296875 "/></g></g></g></g></g></svg>