<svg xmlns="http://www.w3.org/2000/svg" viewBox="0 0 75 75" width="100" height="100" aria-hidden="true">
  <circle cx="37.5" cy="37.5" r="37.5" fill="#000000"/>
  <path fill="#25F4EE" d="M34.6 30.9v-1.2c-.5-.1-1-.1-1.5-.1-5.9 0-10.7 4.8-10.7 10.7 0 3.6 1.8 6.8 4.6 8.7-1.8-1.9-2.9-4.5-2.9-7.3 0-5.8 4.7-10.5 10.5-10.7z"/>
  <path fill="#FE2C55" d="M50.9 28.7v4.7c-2.7 0-5.3-.9-7.4-2.4v10.9c0 5.9-4.8 10.7-10.7 10.7-2.2 0-4.3-.7-6-1.9 1.9 2.1 4.7 3.4 7.8 3.4 5.9 0 10.7-4.8 10.7-10.7V32.5c2.1 1.5 4.7 2.4 7.4 2.4v-6c-.6 0-1.2-.1-1.8-.2z"/>
  <path fill="#ffffff" d="M43.5 31V42c0 5.9-4.8 10.7-10.7 10.7-3.1 0-5.9-1.3-7.8-3.4-2.8-1.9-4.6-5.1-4.6-8.7 0-5.9 4.8-10.7 10.7-10.7.5 0 1 0 1.5.1v5.9c-.5-.1-.9-.2-1.5-.2-2.5 0-4.5 2-4.5 4.5s2 4.5 4.5 4.5 4.5-2 4.5-4.5V20.7h5.9c.5 2.8 2.1 5.2 4.4 6.7 1.4 1 3.1 1.6 4.9 1.6v4.7c-2.7 0-5.3-.9-7.4-2.4z"/>
</svg>