<svg xmlns="http://www.w3.org/2000/svg" viewBox="0 0 24 24" aria-hidden="true">
  <defs>
    <linearGradient id="waGreen" x1="0" y1="0" x2="1" y2="1">
      <stop offset="0" stop-color="#14b51f"/>
      <stop offset="1" stop-color="#0d8f16"/>
    </linearGradient>
  </defs>
  <circle cx="12" cy="12" r="11" fill="url(#waGreen)"/>
  <path fill="#fff" d="M17.31 14.15c-.27-.13-1.58-.78-1.82-.87-.24-.09-.42-.13-.6.14-.18.27-.69.87-.85 1.04-.16.18-.31.2-.58.07-.27-.13-1.12-.41-2.13-1.31-.79-.7-1.32-1.56-1.47-1.82-.16-.27-.02-.41.12-.54.12-.11.27-.29.4-.43.13-.14.18-.24.27-.4.09-.16.04-.31-.02-.43-.07-.13-.6-1.46-.83-2-.22-.53-.45-.46-.6-.47h-.52c-.18 0-.47.07-.71.34-.24.27-.92.9-.92 2.19s.94 2.54 1.08 2.72c.13.18 1.84 2.81 4.46 3.94.62.27 1.1.43 1.48.55.62.2 1.18.17 1.62.1.5-.08 1.58-.65 1.8-1.28.22-.64.22-1.18.16-1.28-.07-.09-.25-.14-.52-.27Z"/>
</svg>
