<svg xmlns="http://www.w3.org/2000/svg" viewBox="0 0 75 75" width="100" height="100" aria-hidden="true">
  <circle cx="37.5" cy="37.5" r="37.5" fill="#ff0000"/>
  <path fill="#ffffff" d="M55.9 27.2c-.44-1.65-1.74-2.95-3.39-3.39C49.52 23 37.5 23 37.5 23s-12.02 0-15.01.81c-1.65.44-2.95 1.74-3.39 3.39C18.29 30.19 18.29 37.5 18.29 37.5s0 7.31.81 10.3c.44 1.65 1.74 2.95 3.39 3.39C25.48 52 37.5 52 37.5 52s12.02 0 15.01-.81c1.65-.44 2.95-1.74 3.39-3.39.81-2.99.81-10.3.81-10.3s0-7.31-.81-10.3zM33.65 43.27V31.73L43.65 37.5z"/>
</svg>